# xmcd
#
# Track frame offsets:
#	150
#	14330
#	25073
#	41657
#	55988
#	74462
#	92078
#	107715
#	128831
#	146824
#	169463
#	186437
#	202046
#	219515
#	244419
#	261007
#	277960
#	298659
#	311099
#	333399
#
# Disc length: 4660 seconds
#
# Revision: 1
# Processed by: cddbd v1.5.2PL0 Copyright (c) Steve Scherf et al.
# Submitted via: audiograbber 1.83.01
#
DISCID=40123214
DTITLE=Театр танца Хабиба - Общие танцы №1
DYEAR=2007
DGENRE=Belle Dance
TTITLE0=Бору
TTITLE1=Валу
TTITLE2=Военный
TTITLE3=Вуаль (с прцелуем)
TTITLE4=Дивы
TTITLE5=Караван Любви
TTITLE6=Кинджатой
TTITLE7=Налах
TTITLE8=Наташа
TTITLE9=Партер
TTITLE10=С подносами
TTITLE11=С вуалями медленый
TTITLE12=Сакде
TTITLE13=Салема
TTITLE14=Сам ты
TTITLE15=Утро в Гареме
TTITLE16=Цветы
TTITLE17=Четвертной
TTITLE18=Шахзаде
TTITLE19=Эльфан
EXTD=
EXTT0=
EXTT1=
EXTT2=
EXTT3=
EXTT4=
EXTT5=
EXTT6=
EXTT7=
EXTT8=
EXTT9=
EXTT10=
EXTT11=
EXTT12=
EXTT13=
EXTT14=
EXTT15=
EXTT16=
EXTT17=
EXTT18=
EXTT19=
PLAYORDER=
